# xmcd
#
# Track frame offsets: 
#        150
#        15150
#        29415
#        43735
#        57365
#        70970
#        85270
#        99657
#        113970
#        129037
#        142897
#        155082
#        168597
#        182772
#        196972
#        211170
#        224945
#        239012
#        251555
#        263597
#        275952
#        288062
#        299670
#        311745
#        323520
#
# Disc length: 4481 seconds
#
# Revision: 4
# Processed by: cddbd v1.5.1PL0 Copyright (c) Steve Scherf et al.
# Submitted via: ExactAudioCopy v0.95a5
#
DISCID=80117f19
DTITLE=Jimmy Yancey - Complete Recorded Works 1939-1950 Volume 1: May 
DTITLE=1939 to February 1940
DYEAR=1900
DGENRE=
TTITLE0=Jimmy's Stuff (Jimmy's Stuff No. 2)
TTITLE1=The Fives
TTITLE2=La Salle Street Breakdown
TTITLE3=Two O'Clock Blues
TTITLE4=Janie's Joys
TTITLE5=Lean Bacon
TTITLE6=Big bear Train
TTITLE7=Lucille's Lament
TTITLE8=Beezum Blues
TTITLE9=Yancey Limited
TTITLE10=Rolling the Stone
TTITLE11=Steady Rock Blues
TTITLE12=P.L.K. Special
TTITLE13=South Side Stuff
TTITLE14=Yancey's Getaway
TTITLE15=How Long Blues
TTITLE16=How Long Blues No. 2
TTITLE17=Yancey Stomp
TTITLE18=State Street Special
TTITLE19=Tell 'Em About Me
TTITLE20=Five O'Clock Blues
TTITLE21=Slow and Easy Blues
TTITLE22=The Mellow Blues
TTITLE23=I Received a Letter
TTITLE24=East St. Louis Blues
EXTD=
EXTT0=
EXTT1=
EXTT2=
EXTT3=
EXTT4=
EXTT5=
EXTT6=
EXTT7=
EXTT8=
EXTT9=
EXTT10=
EXTT11=
EXTT12=
EXTT13=
EXTT14=
EXTT15=
EXTT16=
EXTT17=
EXTT18=
EXTT19=
EXTT20=
EXTT21=
EXTT22=
EXTT23=
EXTT24=
PLAYORDER=
